<svg width="180" height="60" viewBox="0 0 180 60" fill="none" xmlns="http://www.w3.org/2000/svg">
<rect width="180" height="60" fill="white"/>
<path d="M22.7377 23.2598L27.7036 20.4255L24.9317 15.6768H51.0005L37.9703 38.0196L35.1984 33.2627L30.2326 36.1052L37.9703 49.3652L60.9322 10H15L22.7377 23.2598Z" fill="#414042"/>
<path d="M61.8912 42V27.9H67.4112C69.8112 27.9 71.6712 28.5133 72.9912 29.74C74.3112 30.9533 74.9712 32.6867 74.9712 34.94C74.9712 37.1933 74.3112 38.9333 72.9912 40.16C71.6712 41.3867 69.8112 42 67.4112 42H61.8912ZM64.9912 39.46H67.2312C70.2312 39.46 71.7312 37.9533 71.7312 34.94C71.7312 31.94 70.2312 30.44 67.2312 30.44H64.9912V39.46ZM76.9995 30.28V27.46H80.2595V30.28H76.9995ZM77.1195 42V32.18H80.1395V42H77.1195ZM87.191 45.82C86.2444 45.82 85.3577 45.72 84.531 45.52C83.7177 45.32 83.0044 45.0067 82.391 44.58L83.211 42.52C83.7444 42.8533 84.3444 43.1067 85.011 43.28C85.691 43.4667 86.331 43.56 86.931 43.56C88.6377 43.56 89.491 42.7733 89.491 41.2V40.08C89.2244 40.5867 88.8044 40.9933 88.231 41.3C87.6577 41.6067 87.031 41.76 86.351 41.76C85.471 41.76 84.7044 41.56 84.051 41.16C83.3977 40.7467 82.891 40.1733 82.531 39.44C82.171 38.7067 81.991 37.8467 81.991 36.86C81.991 35.8867 82.171 35.0333 82.531 34.3C82.891 33.5667 83.3977 33 84.051 32.6C84.7044 32.1867 85.471 31.98 86.351 31.98C87.0577 31.98 87.691 32.1333 88.251 32.44C88.811 32.7467 89.2244 33.1533 89.491 33.66V32.18H92.431V40.86C92.431 42.5133 91.9844 43.7533 91.091 44.58C90.1977 45.4067 88.8977 45.82 87.191 45.82ZM87.251 39.5C87.9177 39.5 88.451 39.2667 88.851 38.8C89.2644 38.3333 89.471 37.6867 89.471 36.86C89.471 36.0333 89.2644 35.3933 88.851 34.94C88.451 34.4733 87.9177 34.24 87.251 34.24C86.571 34.24 86.031 34.4733 85.631 34.94C85.231 35.3933 85.031 36.0333 85.031 36.86C85.031 37.6867 85.231 38.3333 85.631 38.8C86.031 39.2667 86.571 39.5 87.251 39.5ZM94.6557 30.28V27.46H97.9157V30.28H94.6557ZM94.7757 42V32.18H97.7957V42H94.7757ZM104.947 42.22C102.187 42.22 100.807 40.88 100.807 38.2V34.44H98.9473V32.18H100.807V29.3H103.827V32.18H106.727V34.44H103.827V38.08C103.827 38.64 103.954 39.06 104.207 39.34C104.474 39.62 104.894 39.76 105.467 39.76C105.641 39.76 105.821 39.74 106.007 39.7C106.207 39.66 106.421 39.6067 106.647 39.54L107.087 41.74C106.807 41.8867 106.474 42 106.087 42.08C105.701 42.1733 105.321 42.22 104.947 42.22ZM111.533 42.22C110.8 42.22 110.153 42.08 109.593 41.8C109.033 41.52 108.587 41.14 108.253 40.66C107.933 40.18 107.773 39.64 107.773 39.04C107.773 38.3333 107.96 37.7667 108.333 37.34C108.707 36.9133 109.313 36.6133 110.153 36.44C110.993 36.2533 112.107 36.16 113.493 36.16H114.213V35.82C114.213 35.2333 114.08 34.82 113.813 34.58C113.547 34.3267 113.093 34.2 112.453 34.2C111.92 34.2 111.353 34.2867 110.753 34.46C110.167 34.62 109.58 34.8667 108.993 35.2L108.173 33.18C108.52 32.9533 108.94 32.7467 109.433 32.56C109.94 32.3733 110.467 32.2333 111.013 32.14C111.56 32.0333 112.08 31.98 112.573 31.98C114.093 31.98 115.227 32.3267 115.973 33.02C116.72 33.7 117.093 34.76 117.093 36.2V42H114.273V40.52C114.073 41.04 113.733 41.4533 113.253 41.76C112.787 42.0667 112.213 42.22 111.533 42.22ZM112.213 40.2C112.773 40.2 113.247 40.0067 113.633 39.62C114.02 39.2333 114.213 38.7333 114.213 38.12V37.72H113.513C112.487 37.72 111.76 37.8133 111.333 38C110.907 38.1733 110.693 38.48 110.693 38.92C110.693 39.2933 110.82 39.6 111.073 39.84C111.34 40.08 111.72 40.2 112.213 40.2ZM123.006 42.22C121.739 42.22 120.813 41.8933 120.226 41.24C119.639 40.5733 119.346 39.5867 119.346 38.28V27.9H122.366V38.16C122.366 39.2267 122.839 39.76 123.786 39.76C123.933 39.76 124.073 39.7533 124.206 39.74C124.353 39.7267 124.493 39.7 124.626 39.66L124.586 42C124.079 42.1467 123.553 42.22 123.006 42.22Z" fill="#4880FF"/>
<path d="M126.266 42V27.9H129.366V42H126.266ZM135.244 42.22C134.511 42.22 133.864 42.08 133.304 41.8C132.744 41.52 132.298 41.14 131.964 40.66C131.644 40.18 131.484 39.64 131.484 39.04C131.484 38.3333 131.671 37.7667 132.044 37.34C132.418 36.9133 133.024 36.6133 133.864 36.44C134.704 36.2533 135.818 36.16 137.204 36.16H137.924V35.82C137.924 35.2333 137.791 34.82 137.524 34.58C137.258 34.3267 136.804 34.2 136.164 34.2C135.631 34.2 135.064 34.2867 134.464 34.46C133.878 34.62 133.291 34.8667 132.704 35.2L131.884 33.18C132.231 32.9533 132.651 32.7467 133.144 32.56C133.651 32.3733 134.178 32.2333 134.724 32.14C135.271 32.0333 135.791 31.98 136.284 31.98C137.804 31.98 138.938 32.3267 139.684 33.02C140.431 33.7 140.804 34.76 140.804 36.2V42H137.984V40.52C137.784 41.04 137.444 41.4533 136.964 41.76C136.498 42.0667 135.924 42.22 135.244 42.22ZM135.924 40.2C136.484 40.2 136.958 40.0067 137.344 39.62C137.731 39.2333 137.924 38.7333 137.924 38.12V37.72H137.224C136.198 37.72 135.471 37.8133 135.044 38C134.618 38.1733 134.404 38.48 134.404 38.92C134.404 39.2933 134.531 39.6 134.784 39.84C135.051 40.08 135.431 40.2 135.924 40.2ZM147.877 42.22C145.117 42.22 143.737 40.88 143.737 38.2V34.44H141.877V32.18H143.737V29.3H146.757V32.18H149.657V34.44H146.757V38.08C146.757 38.64 146.884 39.06 147.137 39.34C147.404 39.62 147.824 39.76 148.397 39.76C148.57 39.76 148.75 39.74 148.937 39.7C149.137 39.66 149.35 39.6067 149.577 39.54L150.017 41.74C149.737 41.8867 149.404 42 149.017 42.08C148.63 42.1733 148.25 42.22 147.877 42.22ZM151.825 42V34.44H149.965V32.18H151.825C151.851 30.7933 152.251 29.7533 153.025 29.06C153.811 28.3533 155.005 27.9533 156.605 27.86L157.705 27.78L157.885 29.98L156.945 30.04C156.171 30.08 155.625 30.2467 155.305 30.54C154.998 30.82 154.845 31.2533 154.845 31.84V32.18H157.405V34.44H154.845V42H151.825Z" fill="#202224"/>
</svg>
